<?xml version="1.0" encoding="UTF-8" standalone="no"?>
<svg
   xmlns:dc="http://purl.org/dc/elements/1.1/"
   xmlns:cc="http://creativecommons.org/ns#"
   xmlns:rdf="http://www.w3.org/1999/02/22-rdf-syntax-ns#"
   xmlns:svg="http://www.w3.org/2000/svg"
   xmlns="http://www.w3.org/2000/svg"
   xmlns:sodipodi="http://sodipodi.sourceforge.net/DTD/sodipodi-0.dtd"
   xmlns:inkscape="http://www.inkscape.org/namespaces/inkscape"
   viewBox="0 0 201 197.5"
   id="svg2"
   version="1.1"
   inkscape:version="0.48.4 r9939"
   width="100%"
   height="100%"
   sodipodi:docname="image.svg">
  <g id="graph0" class="graph">
  <metadata
     id="metadata112">
    <rdf:RDF>
      <cc:Work
         rdf:about="">
        <dc:format>image/svg+xml</dc:format>
        <dc:type
           rdf:resource="http://purl.org/dc/dcmitype/StillImage" />
      </cc:Work>
    </rdf:RDF>
  </metadata>
  <defs
     id="defs110" />
  <sodipodi:namedview
     pagecolor="#ffffff"
     bordercolor="#666666"
     borderopacity="1"
     objecttolerance="10"
     gridtolerance="10"
     guidetolerance="10"
     inkscape:pageopacity="0"
     inkscape:pageshadow="2"
     inkscape:window-width="1858"
     inkscape:window-height="1058"
     id="namedview108"
     showgrid="false"
     inkscape:zoom="4.627451"
     inkscape:cx="63.18783"
     inkscape:cy="155.36537"
     inkscape:window-x="-8"
     inkscape:window-y="-8"
     inkscape:window-maximized="1"
     inkscape:current-layer="svg2"
     fit-margin-top="0"
     fit-margin-left="0"
     fit-margin-right="0"
     fit-margin-bottom="0" />
  <g
     class="edge"
     id="LINE1"
     transform="translate(0.5,196.5)">
    <title
       id="title20">BUS0--BUS1</title>
    <path
       style="fill:none;stroke:#000000"
       inkscape:connector-curvature="0"
       id="path22"
       d="m 67,-191.736 c 0,5.77 0,29.568 0,35.428" />
    <text
       xml:space="preserve"
       style="font-size:0.5em"
       x="73.406776"
       y="-170.58475"
       id="text3047"
       sodipodi:linespacing="125%">.</text>
  </g>
  <g
     class="edge"
     id="LINE2"
     transform="translate(0.5,196.5)">
    <title
       id="title30">BUS1--BUS2</title>
    <path
       style="fill:none;stroke:#000000"
       inkscape:connector-curvature="0"
       id="path32"
       d="m 65.7357,-151.736 c -5.7694,5.77 -29.5681,29.568 -35.4277,35.428" />
    <text
       xml:space="preserve"
       style="font-size:0.5em"
       x="10"
       y="-132"
       id="text3047"
       sodipodi:linespacing="125%">.</text>
  </g>
  <g
     class="edge"
     id="LINE3"
     transform="translate(0.5,196.5)">
    <title
       id="title40">BUS1--BUS3</title>
    <path
       style="fill:none;stroke:#000000"
       inkscape:connector-curvature="0"
       id="path42"
       d="m 68.2643,-151.736 c 5.7694,5.77 29.5681,29.568 35.4277,35.428" />
    <text
       xml:space="preserve"
       style="font-size:0.5em"
       x="100"
       y="-132"
       id="text3047"
       sodipodi:linespacing="125%">.</text>
  </g>
  <g
     class="node"
     id="DEV_2_0"
     transform="translate(0.5,196.5)">
    <title
       id="title45">DEV_2_0</title>
    <ellipse
       style="fill:#ffffff;stroke:#000000;stroke-width:2"
       sodipodi:ry="10"
       sodipodi:rx="10"
       sodipodi:cy="-66"
       sodipodi:cx="29"
       d="m 39,-66 c 0,5.522847 -4.477153,10 -10,10 -5.522847,0 -10,-4.477153 -10,-10 0,-5.522847 4.477153,-10 10,-10 5.522847,0 10,4.477153 10,10 z"
       id="ellipse47"
       ry="10"
       rx="10"
       cy="-66"
       cx="29" />
    <text
       style="font-size:24px;text-anchor:middle;font-family:Verdena"
       id="text49"
       font-size="24.00"
       y="-58.9594"
       x="29">~</text>
  </g>
  <g
     class="edge"
     id="edge1"
     transform="translate(0.5,196.5)">
    <title
       id="title52">BUS2--DEV_2_0</title>
    <path
       style="fill:none;stroke:#000000"
       inkscape:connector-curvature="0"
       id="path54"
       d="m 29,-111.863 c 0,4.815 0,23.81 0,35.4849" />
  </g>
  <g
     class="edge"
     id="LINE4"
     transform="translate(0.5,196.5)">
    <title
       id="title62">BUS3--BUS4</title>
    <path
       style="fill:none;stroke:#000000"
       inkscape:connector-curvature="0"
       id="path64"
       d="m 104.753,-111.863 c -1.372,6.309 -8.0363,36.966 -9.4777,43.5967" />
    <text
       xml:space="preserve"
       style="font-size:0.5em"
       x="62"
       y="-87"
       id="text3047"
       sodipodi:linespacing="125%">.</text>
  </g>
  <g
     class="edge"
     id="LINE5"
     transform="translate(0.5,196.5)">
    <title
       id="title72">BUS3--BUS5</title>
    <path
       style="fill:none;stroke:#000000"
       inkscape:connector-curvature="0"
       id="path74"
       d="m 106.631,-111.863 c 9.052,6.309 53.039,36.966 62.552,43.5967" />
    <text
       xml:space="preserve"
       style="font-size:0.5em"
       x="155"
       y="-87"
       id="text3047"
       sodipodi:linespacing="125%">.</text>
  </g>
  <g
     class="node"
     id="DEV_4_0"
     transform="translate(0.5,196.5)">
    <title
       id="title77">DEV_4_0</title>
    <polygon
       style="fill:#FFF;stroke:#000000;stroke-width:2"
       id="polygon79"
       points="85,-15 67,-15 76,3.55271e-015 76,3.55271e-015 " />
  </g>
  <g
     class="edge"
     id="edge2"
     transform="translate(0.5,196.5)">
    <title
       id="title82">BUS4--DEV_4_0</title>
    <path
       style="fill:none;stroke:#000000"
       inkscape:connector-curvature="0"
       id="path84"
       d="m 94.5303,-63.6652 c -2.3772,6.7564 -13.1243,37.3009 -17.071,48.5176" />
  </g>
  <g
     class="node"
     id="DEV_4_1"
     transform="translate(0.5,196.5)">
    <title
       id="title87">DEV_4_1</title>
    <ellipse
       style="fill:#ffffff;stroke:#000000;stroke-width:2"
       sodipodi:ry="10"
       sodipodi:rx="10"
       sodipodi:cy="-10"
       sodipodi:cx="113"
       d="m 123,-10 c 0,5.5228475 -4.47715,10 -10,10 -5.52285,0 -10,-4.4771525 -10,-10 0,-5.522847 4.47715,-10 10,-10 5.52285,0 10,4.477153 10,10 z"
       id="ellipse89"
       ry="10"
       rx="10"
       cy="-10"
       cx="113" />
    <text
       style="font-size:24px;text-anchor:middle;font-family:Verdena"
       id="text91"
       font-size="24.00"
       y="-2.9593699"
       x="113">~</text>
  </g>
  <g
     class="edge"
     id="edge3"
     transform="translate(0.5,196.5)">
    <title
       id="title94">BUS4--DEV_4_1</title>
    <path
       style="fill:none;stroke:#000000"
       inkscape:connector-curvature="0"
       id="path96"
       d="m 95.4449,-63.6652 c 1.9923,5.9768 10.1901,30.5689 14.6431,43.9292" />
  </g>
  <g
     class="node"
     id="DEV_5_0"
     transform="translate(0.5,196.5)">
    <title
       id="title99">DEV_5_0</title>
    <polygon
       style="fill:#000000;stroke:#000000;stroke-width:2"
       id="polygon101"
       points="180,-15 162,-15 171,3.55271e-015 171,3.55271e-015 " />
  </g>
  <g
     class="edge"
     id="edge4"
     transform="translate(0.5,196.5)">
    <title
       id="title104">BUS5--DEV_5_0</title>
    <path
       style="fill:none;stroke:#000000"
       inkscape:connector-curvature="0"
       id="path106"
       d="m 171,-63.6652 c 0,6.7564 0,37.3009 0,48.5176" />
  </g>
  <g
     class="node"
     id="BUS0"
     transform="translate(0.5,196.5)">
    <title
       id="title10">BUS0</title>
    <polygon
       style="fill:#000000;stroke:#000000"
       id="polygon12"
       points="96,-196 38,-196 38,-192 96,-192 96,-196 " />
  </g>
  <g
     class="node"
     id="BUS1"
     transform="translate(0.5,196.5)">
    <title
       id="title15">BUS1</title>
    <polygon
       style="fill:#000000;stroke:#000000"
       id="polygon17"
       points="96,-156 38,-156 38,-152 96,-152 96,-156 " />
  </g>
  <g
     class="node"
     id="BUS2"
     transform="translate(0.5,196.5)">
    <title
       id="title25">BUS2</title>
    <polygon
       style="fill:#000000;stroke:#000000"
       id="polygon27"
       points="58,-116 0,-116 0,-112 58,-112 58,-116 " />
  </g>
  <g
     class="node"
     id="BUS3"
     transform="translate(0.5,196.5)">
    <title
       id="title35">BUS3</title>
    <polygon
       style="fill:#000000;stroke:#000000"
       id="polygon37"
       points="134,-116 76,-116 76,-112 134,-112 134,-116 " />
  </g>
  <g
     class="node"
     id="BUS4"
     transform="translate(0.5,196.5)">
    <title
       id="title57">BUS4</title>
    <polygon
       style="fill:#000000;stroke:#000000"
       id="polygon59"
       points="124,-68 66,-68 66,-64 124,-64 124,-68 " />
  </g>
  <g
     class="node"
     id="BUS5"
     transform="translate(0.5,196.5)">
    <title
       id="title67">BUS5</title>
    <polygon
       style="fill:#000000;stroke:#000000"
       id="polygon69"
       points="200,-68 142,-68 142,-64 200,-64 200,-68 " />
  </g>
  </g>
</svg>
