<?xml version="1.0" encoding="UTF-8" standalone="no"?>
<!DOCTYPE svg PUBLIC "-//W3C//DTD SVG 1.1//EN"
 "http://www.w3.org/Graphics/SVG/1.1/DTD/svg11.dtd">
<!-- Generated by graphviz version 2.36.0 (20140111.2315)
 -->
<!-- Title: example Pages: 1 -->
<svg width="152pt" height="247pt"
 viewBox="0.00 0.00 152.00 246.50" xmlns="http://www.w3.org/2000/svg" xmlns:xlink="http://www.w3.org/1999/xlink">
<g id="graph0" class="graph" transform="scale(1 1) rotate(0) translate(4 242.5)">
<title>example</title>
<polygon fill="white" stroke="none" points="-4,4 -4,-242.5 148,-242.5 148,4 -4,4"/>
<!-- BUS0&#45;&#45;BUS1 -->
<g id="LINE1" class="edge"><title>BUS0&#45;&#45;BUS1</title>
<path fill="none" stroke="black" stroke-width="2" d="M51,-224C51,-224 51,-182.753 51,-173.73"/>
<text text-anchor="middle" x="65" y="-195.5" font-family="Times,serif" font-size="10.00"> &#160;&#160;&#160;&#160;. &#160;&#160;&#160;&#160;</text>
</g>
<!-- BUS1&#45;&#45;BUS2 -->
<g id="LINE2" class="edge"><title>BUS1&#45;&#45;BUS2</title>
<path fill="none" stroke="black" stroke-width="2" d="M51,-170C51,-170 29.5833,-128.753 24.8983,-119.73"/>
<text text-anchor="middle" x="41" y="-141.5" font-family="Times,serif" font-size="10.00"> &#160;&#160;&#160;&#160;. &#160;&#160;&#160;&#160;</text>
</g>
<!-- BUS1&#45;&#45;BUS3 -->
<g id="LINE3" class="edge"><title>BUS1&#45;&#45;BUS3</title>
<path fill="none" stroke="black" stroke-width="2" d="M51,-170C51,-170 72.4167,-128.753 77.1017,-119.73"/>
<text text-anchor="middle" x="80" y="-141.5" font-family="Times,serif" font-size="10.00"> &#160;&#160;&#160;&#160;. &#160;&#160;&#160;&#160;</text>
</g>
<!-- BUS2&#45;&#45;GEN1 -->
<g id="edge6" class="edge"><title>BUS2&#45;&#45;GEN1</title>
<path fill="none" stroke="black" stroke-width="2" d="M24,-116C24,-116 24,-81.1333 24,-66.4239"/>
</g>
<!-- BUS3&#45;&#45;BUS4 -->
<g id="LINE4" class="edge"><title>BUS3&#45;&#45;BUS4</title>
<path fill="none" stroke="black" stroke-width="2" d="M78,-116C78,-116 73.2407,-71.5801 72.1996,-61.8632"/>
<text text-anchor="middle" x="89" y="-87.5" font-family="Times,serif" font-size="10.00"> &#160;&#160;&#160;&#160;. &#160;&#160;&#160;&#160;</text>
</g>
<!-- BUS3&#45;&#45;BUS5 -->
<g id="LINE5" class="edge"><title>BUS3&#45;&#45;BUS5</title>
<path fill="none" stroke="black" stroke-width="2" d="M78,-116C78,-116 116.074,-71.5801 124.403,-61.8632"/>
<text text-anchor="middle" x="124" y="-87.5" font-family="Times,serif" font-size="10.00"> &#160;&#160;&#160;&#160;. &#160;&#160;&#160;&#160;</text>
</g>
<!-- BUS4&#45;&#45;LOAD1 -->
<g id="edge7" class="edge"><title>BUS4&#45;&#45;LOAD1</title>
<path fill="none" stroke="black" stroke-width="2" d="M72,-58C72,-58 72,-21.0737 72,-10.6882"/>
</g>
<!-- BUS5&#45;&#45;LOAD2 -->
<g id="edge8" class="edge"><title>BUS5&#45;&#45;LOAD2</title>
<path fill="none" stroke="black" stroke-width="2" d="M126,-58C126,-58 126,-21.0737 126,-10.6882"/>
</g>
<!-- BUS0 -->
<g id="BUS0" class="node"><title>BUS0</title>
<polygon fill="#000000" stroke="#000000" points="69,-227.5 33,-227.5 33,-222.5 69,-222.5 69,-227.5"/>
<text text-anchor="middle" x="30" y="-230.5" font-family="Times,serif" font-size="10.00">0</text>
</g>
<!-- BUS1 -->
<g id="BUS1" class="node"><title>BUS1</title>
<polygon fill="#000000" stroke="#000000" points="69,-173.5 33,-173.5 33,-168.5 69,-168.5 69,-173.5"/>
<text text-anchor="middle" x="30" y="-176.5" font-family="Times,serif" font-size="10.00">1</text>
</g>
<!-- BUS2 -->
<g id="BUS2" class="node"><title>BUS2</title>
<polygon fill="#000000" stroke="#000000" points="42,-119.5 6,-119.5 6,-114.5 42,-114.5 42,-119.5"/>
<text text-anchor="middle" x="3" y="-122.5" font-family="Times,serif" font-size="10.00">2</text>
</g>
<!-- BUS3 -->
<g id="BUS3" class="node"><title>BUS3</title>
<polygon fill="#000000" stroke="#000000" points="96,-119.5 60,-119.5 60,-114.5 96,-114.5 96,-119.5"/>
<text text-anchor="middle" x="57" y="-122.5" font-family="Times,serif" font-size="10.00">3</text>
</g>
<!-- BUS4 -->
<g id="BUS4" class="node"><title>BUS4</title>
<polygon fill="#000000" stroke="#000000" points="90,-61.5 54,-61.5 54,-56.5 90,-56.5 90,-61.5"/>
<text text-anchor="middle" x="51" y="-64.5" font-family="Times,serif" font-size="10.00">4</text>
</g>
<!-- BUS5 -->
<g id="BUS5" class="node"><title>BUS5</title>
<polygon fill="#000000" stroke="#000000" points="144,-61.5 108,-61.5 108,-56.5 144,-56.5 144,-61.5"/>
<text text-anchor="middle" x="105" y="-64.5" font-family="Times,serif" font-size="10.00">5</text>
</g>
<!-- GEN1 -->
<g id="GEN1" class="node"><title>GEN1</title>
<ellipse fill="none" stroke="black" stroke-width="2" cx="24" cy="-59" rx="7" ry="7"/>
<text text-anchor="middle" x="24" y="-54.6" font-family="Times,serif" font-size="18.00">~</text>
</g>
<!-- LOAD1 -->
<g id="LOAD1" class="node"><title>LOAD1</title>
<polygon fill="#000000" stroke="#000000" stroke-width="2" points="72,3.55271e-15 79,-10.5 65,-10.5 72,3.55271e-15"/>
</g>
<!-- LOAD2 -->
<g id="LOAD2" class="node"><title>LOAD2</title>
<polygon fill="#000000" stroke="#000000" stroke-width="2" points="126,3.55271e-15 133,-10.5 119,-10.5 126,3.55271e-15"/>
</g>
</g>
</svg>
