<?xml version="1.0" encoding="UTF-8" standalone="no"?>
<!DOCTYPE svg PUBLIC "-//W3C//DTD SVG 1.1//EN"
 "http://www.w3.org/Graphics/SVG/1.1/DTD/svg11.dtd">
<!-- Generated by graphviz version 2.36.0 (20140111.2315)
 -->
<!-- Title: example Pages: 1 -->
<svg width="229pt" height="627pt"
 viewBox="0.00 0.00 229.00 626.50" xmlns="http://www.w3.org/2000/svg" xmlns:xlink="http://www.w3.org/1999/xlink">
<g id="graph0" class="graph" transform="scale(1 1) rotate(0) translate(4 622.5)">
<title>example</title>
<polygon fill="white" stroke="none" points="-4,4 -4,-622.5 225,-622.5 225,4 -4,4"/>
<!-- BUS0&#45;&#45;BUS1 -->
<g id="LINE1" class="edge"><title>BUS0&#45;&#45;BUS1</title>
<path fill="none" stroke="black" stroke-width="2" d="M192,-604C192,-604 192,-562.753 192,-553.73"/>
<text text-anchor="middle" x="206" y="-575.5" font-family="Times,serif" font-size="10.00"> &#160;&#160;&#160;&#160;. &#160;&#160;&#160;&#160;</text>
</g>
<!-- BUS1&#45;&#45;BUS2 -->
<g id="LINE2" class="edge"><title>BUS1&#45;&#45;BUS2</title>
<path fill="none" stroke="black" stroke-width="2" d="M192,-550C192,-550 175.343,-505.58 171.699,-495.863"/>
<text text-anchor="middle" x="186" y="-521.5" font-family="Times,serif" font-size="10.00"> &#160;&#160;&#160;&#160;. &#160;&#160;&#160;&#160;</text>
</g>
<!-- BUS1&#45;&#45;GEN1 -->
<g id="edge10" class="edge"><title>BUS1&#45;&#45;GEN1</title>
<path fill="none" stroke="black" stroke-width="2" d="M192,-550C192,-550 205.97,-514.439 211.646,-499.993"/>
</g>
<!-- BUS2&#45;&#45;BUS3 -->
<g id="LINE3" class="edge"><title>BUS2&#45;&#45;BUS3</title>
<path fill="none" stroke="black" stroke-width="2" d="M171,-492C171,-492 154.049,-443.569 150.606,-433.731"/>
<text text-anchor="middle" x="165" y="-459.5" font-family="Times,serif" font-size="10.00"> &#160;&#160;&#160;&#160;. &#160;&#160;&#160;&#160;</text>
</g>
<!-- BUS2&#45;&#45;LOAD1 -->
<g id="edge11" class="edge"><title>BUS2&#45;&#45;LOAD1</title>
<path fill="none" stroke="black" stroke-width="2" d="M171,-492C171,-492 187.844,-446.062 192.055,-434.578"/>
</g>
<!-- BUS3&#45;&#45;BUS4 -->
<g id="LINE4" class="edge"><title>BUS3&#45;&#45;BUS4</title>
<path fill="none" stroke="black" stroke-width="2" d="M150,-430C150,-430 133.049,-381.569 129.606,-371.731"/>
<text text-anchor="middle" x="144" y="-397.5" font-family="Times,serif" font-size="10.00"> &#160;&#160;&#160;&#160;. &#160;&#160;&#160;&#160;</text>
</g>
<!-- BUS3&#45;&#45;LOAD2 -->
<g id="edge12" class="edge"><title>BUS3&#45;&#45;LOAD2</title>
<path fill="none" stroke="black" stroke-width="2" d="M150,-430C150,-430 166.844,-384.062 171.055,-372.578"/>
</g>
<!-- BUS4&#45;&#45;BUS5 -->
<g id="LINE5" class="edge"><title>BUS4&#45;&#45;BUS5</title>
<path fill="none" stroke="black" stroke-width="2" d="M129,-368C129,-368 112.049,-319.569 108.606,-309.731"/>
<text text-anchor="middle" x="123" y="-335.5" font-family="Times,serif" font-size="10.00"> &#160;&#160;&#160;&#160;. &#160;&#160;&#160;&#160;</text>
</g>
<!-- BUS4&#45;&#45;LOAD3 -->
<g id="edge13" class="edge"><title>BUS4&#45;&#45;LOAD3</title>
<path fill="none" stroke="black" stroke-width="2" d="M129,-368C129,-368 145.844,-322.062 150.055,-310.578"/>
</g>
<!-- BUS5&#45;&#45;BUS6 -->
<g id="LINE6" class="edge"><title>BUS5&#45;&#45;BUS6</title>
<path fill="none" stroke="black" stroke-width="2" d="M108,-306C108,-306 91.049,-257.569 87.6058,-247.731"/>
<text text-anchor="middle" x="102" y="-273.5" font-family="Times,serif" font-size="10.00"> &#160;&#160;&#160;&#160;. &#160;&#160;&#160;&#160;</text>
</g>
<!-- BUS5&#45;&#45;LOAD4 -->
<g id="edge14" class="edge"><title>BUS5&#45;&#45;LOAD4</title>
<path fill="none" stroke="black" stroke-width="2" d="M108,-306C108,-306 124.844,-260.062 129.055,-248.578"/>
</g>
<!-- BUS6&#45;&#45;BUS7 -->
<g id="LINE7" class="edge"><title>BUS6&#45;&#45;BUS7</title>
<path fill="none" stroke="black" stroke-width="2" d="M87,-244C87,-244 70.049,-195.569 66.6058,-185.731"/>
<text text-anchor="middle" x="81" y="-211.5" font-family="Times,serif" font-size="10.00"> &#160;&#160;&#160;&#160;. &#160;&#160;&#160;&#160;</text>
</g>
<!-- BUS6&#45;&#45;LOAD5 -->
<g id="edge15" class="edge"><title>BUS6&#45;&#45;LOAD5</title>
<path fill="none" stroke="black" stroke-width="2" d="M87,-244C87,-244 103.844,-198.062 108.055,-186.578"/>
</g>
<!-- BUS7&#45;&#45;BUS8 -->
<g id="LINE8" class="edge"><title>BUS7&#45;&#45;BUS8</title>
<path fill="none" stroke="black" stroke-width="2" d="M66,-182C66,-182 49.049,-133.569 45.6058,-123.731"/>
<text text-anchor="middle" x="60" y="-149.5" font-family="Times,serif" font-size="10.00"> &#160;&#160;&#160;&#160;. &#160;&#160;&#160;&#160;</text>
</g>
<!-- BUS7&#45;&#45;LOAD6 -->
<g id="edge16" class="edge"><title>BUS7&#45;&#45;LOAD6</title>
<path fill="none" stroke="black" stroke-width="2" d="M66,-182C66,-182 82.8438,-136.062 87.0547,-124.578"/>
</g>
<!-- BUS8&#45;&#45;BUS9 -->
<g id="LINE9" class="edge"><title>BUS8&#45;&#45;BUS9</title>
<path fill="none" stroke="black" stroke-width="2" d="M45,-120C45,-120 28.049,-71.5686 24.6058,-61.731"/>
<text text-anchor="middle" x="39" y="-87.5" font-family="Times,serif" font-size="10.00"> &#160;&#160;&#160;&#160;. &#160;&#160;&#160;&#160;</text>
</g>
<!-- BUS8&#45;&#45;LOAD7 -->
<g id="edge17" class="edge"><title>BUS8&#45;&#45;LOAD7</title>
<path fill="none" stroke="black" stroke-width="2" d="M45,-120C45,-120 61.8438,-74.0625 66.0547,-62.5781"/>
</g>
<!-- BUS9&#45;&#45;LOAD8 -->
<g id="edge18" class="edge"><title>BUS9&#45;&#45;LOAD8</title>
<path fill="none" stroke="black" stroke-width="2" d="M24,-58C24,-58 24,-21.0737 24,-10.6882"/>
</g>
<!-- BUS0 -->
<g id="BUS0" class="node"><title>BUS0</title>
<polygon fill="#000000" stroke="#000000" points="210,-607.5 174,-607.5 174,-602.5 210,-602.5 210,-607.5"/>
<text text-anchor="middle" x="171" y="-610.5" font-family="Times,serif" font-size="10.00">0</text>
</g>
<!-- BUS1 -->
<g id="BUS1" class="node"><title>BUS1</title>
<polygon fill="#000000" stroke="#000000" points="210,-553.5 174,-553.5 174,-548.5 210,-548.5 210,-553.5"/>
<text text-anchor="middle" x="171" y="-556.5" font-family="Times,serif" font-size="10.00">1</text>
</g>
<!-- BUS2 -->
<g id="BUS2" class="node"><title>BUS2</title>
<polygon fill="#000000" stroke="#000000" points="189,-495.5 153,-495.5 153,-490.5 189,-490.5 189,-495.5"/>
<text text-anchor="middle" x="150" y="-498.5" font-family="Times,serif" font-size="10.00">2</text>
</g>
<!-- BUS3 -->
<g id="BUS3" class="node"><title>BUS3</title>
<polygon fill="#000000" stroke="#000000" points="168,-433.5 132,-433.5 132,-428.5 168,-428.5 168,-433.5"/>
<text text-anchor="middle" x="129" y="-436.5" font-family="Times,serif" font-size="10.00">3</text>
</g>
<!-- BUS4 -->
<g id="BUS4" class="node"><title>BUS4</title>
<polygon fill="#000000" stroke="#000000" points="147,-371.5 111,-371.5 111,-366.5 147,-366.5 147,-371.5"/>
<text text-anchor="middle" x="108" y="-374.5" font-family="Times,serif" font-size="10.00">4</text>
</g>
<!-- BUS5 -->
<g id="BUS5" class="node"><title>BUS5</title>
<polygon fill="#000000" stroke="#000000" points="126,-309.5 90,-309.5 90,-304.5 126,-304.5 126,-309.5"/>
<text text-anchor="middle" x="87" y="-312.5" font-family="Times,serif" font-size="10.00">5</text>
</g>
<!-- BUS6 -->
<g id="BUS6" class="node"><title>BUS6</title>
<polygon fill="#000000" stroke="#000000" points="105,-247.5 69,-247.5 69,-242.5 105,-242.5 105,-247.5"/>
<text text-anchor="middle" x="66" y="-250.5" font-family="Times,serif" font-size="10.00">6</text>
</g>
<!-- BUS7 -->
<g id="BUS7" class="node"><title>BUS7</title>
<polygon fill="#000000" stroke="#000000" points="84,-185.5 48,-185.5 48,-180.5 84,-180.5 84,-185.5"/>
<text text-anchor="middle" x="45" y="-188.5" font-family="Times,serif" font-size="10.00">7</text>
</g>
<!-- BUS8 -->
<g id="BUS8" class="node"><title>BUS8</title>
<polygon fill="#000000" stroke="#000000" points="63,-123.5 27,-123.5 27,-118.5 63,-118.5 63,-123.5"/>
<text text-anchor="middle" x="24" y="-126.5" font-family="Times,serif" font-size="10.00">8</text>
</g>
<!-- BUS9 -->
<g id="BUS9" class="node"><title>BUS9</title>
<polygon fill="#000000" stroke="#000000" points="42,-61.5 6,-61.5 6,-56.5 42,-56.5 42,-61.5"/>
<text text-anchor="middle" x="3" y="-64.5" font-family="Times,serif" font-size="10.00">9</text>
</g>
<!-- GEN1 -->
<g id="GEN1" class="node"><title>GEN1</title>
<ellipse fill="none" stroke="black" stroke-width="2" cx="214" cy="-493" rx="7" ry="7"/>
<text text-anchor="middle" x="214" y="-488.6" font-family="Times,serif" font-size="18.00">~</text>
</g>
<!-- LOAD1 -->
<g id="LOAD1" class="node"><title>LOAD1</title>
<polygon fill="#000000" stroke="#000000" stroke-width="2" points="193,-424 200,-434.5 186,-434.5 193,-424"/>
</g>
<!-- LOAD2 -->
<g id="LOAD2" class="node"><title>LOAD2</title>
<polygon fill="#000000" stroke="#000000" stroke-width="2" points="172,-362 179,-372.5 165,-372.5 172,-362"/>
</g>
<!-- LOAD3 -->
<g id="LOAD3" class="node"><title>LOAD3</title>
<polygon fill="#000000" stroke="#000000" stroke-width="2" points="151,-300 158,-310.5 144,-310.5 151,-300"/>
</g>
<!-- LOAD4 -->
<g id="LOAD4" class="node"><title>LOAD4</title>
<polygon fill="#000000" stroke="#000000" stroke-width="2" points="130,-238 137,-248.5 123,-248.5 130,-238"/>
</g>
<!-- LOAD5 -->
<g id="LOAD5" class="node"><title>LOAD5</title>
<polygon fill="#000000" stroke="#000000" stroke-width="2" points="109,-176 116,-186.5 102,-186.5 109,-176"/>
</g>
<!-- LOAD6 -->
<g id="LOAD6" class="node"><title>LOAD6</title>
<polygon fill="#000000" stroke="#000000" stroke-width="2" points="88,-114 95,-124.5 81,-124.5 88,-114"/>
</g>
<!-- LOAD7 -->
<g id="LOAD7" class="node"><title>LOAD7</title>
<polygon fill="#000000" stroke="#000000" stroke-width="2" points="67,-52 74,-62.5 60,-62.5 67,-52"/>
</g>
<!-- LOAD8 -->
<g id="LOAD8" class="node"><title>LOAD8</title>
<polygon fill="#000000" stroke="#000000" stroke-width="2" points="24,3.55271e-15 31,-10.5 17,-10.5 24,3.55271e-15"/>
</g>
</g>
</svg>
